<?xml version="1.0" standalone="yes"?>
<!DOCTYPE svg PUBLIC "-//W3C//DTD SVG 1.1//EN"
 "http://www.w3.org/Graphics/SVG/1.1/DTD/svg11.dtd">
<svg xmlns="http://www.w3.org/2000/svg" version="1.1"
  width="100%" height="100%" viewBox="0 0 1024 768"
  style="fill: none; stroke-width: 3; font-family: Helvetica;
 font: Helvetica;
">

<!-- Creator: NGspice -->

<rect x="0" y="0" width="1024" height="768" fill="black" stroke="none"/>
<text stroke="none" fill="white" font-size="16" x="358" y="752">
time
</text>
<text stroke="none" fill="white" font-size="16" x="10" y="16">
tran1: * spice3 file created from 6_bit_dac.ext - technology: sky130a
</text>
<path stroke="white" stroke-width="3" d="M50 704l0 -640"/>
<text stroke="none" fill="white" font-size="16" x="35" y="728">
0.0
</text>
<path stroke="white" stroke-width="3" stroke-dasharray="1,2" d="M204 704l0 -640"/>
<text stroke="none" fill="white" font-size="16" x="184" y="728">
50.0
</text>
<path stroke="white" stroke-width="3" stroke-dasharray="1,2" d="M358 704l0 -640"/>
<text stroke="none" fill="white" font-size="16" x="333" y="728">
100.0
</text>
<path stroke="white" stroke-width="3" stroke-dasharray="1,2" d="M512 704l0 -640"/>
<text stroke="none" fill="white" font-size="16" x="487" y="728">
150.0
</text>
<path stroke="white" stroke-width="3" stroke-dasharray="1,2" d="M666 704l0 -640"/>
<text stroke="none" fill="white" font-size="16" x="641" y="728">
200.0
</text>
<path stroke="white" stroke-width="3" stroke-dasharray="1,2" d="M820 704l0 -640"/>
<text stroke="none" fill="white" font-size="16" x="795" y="728">
250.0
</text>
<path stroke="white" stroke-width="3" stroke-dasharray="1,2" d="M974 704l0 -640"/>
<text stroke="none" fill="white" font-size="16" x="949" y="728">
300.0
</text>
<text stroke="none" fill="white" font-size="16" x="614" y="752">
ns
</text>
<path stroke="white" stroke-width="3" stroke-dasharray="1,2" d="M50 704l924 0"/>
<text stroke="none" fill="white" font-size="16" x="8" y="712">
-0.5
</text>
<path stroke="white" stroke-width="3" d="M50 624l924 0"/>
<text stroke="none" fill="white" font-size="16" x="18" y="632">
0.0
</text>
<path stroke="white" stroke-width="3" stroke-dasharray="1,2" d="M50 544l924 0"/>
<text stroke="none" fill="white" font-size="16" x="18" y="552">
0.5
</text>
<path stroke="white" stroke-width="3" stroke-dasharray="1,2" d="M50 464l924 0"/>
<text stroke="none" fill="white" font-size="16" x="18" y="472">
1.0
</text>
<path stroke="white" stroke-width="3" stroke-dasharray="1,2" d="M50 384l924 0"/>
<text stroke="none" fill="white" font-size="16" x="18" y="392">
1.5
</text>
<path stroke="white" stroke-width="3" stroke-dasharray="1,2" d="M50 304l924 0"/>
<text stroke="none" fill="white" font-size="16" x="18" y="312">
2.0
</text>
<path stroke="white" stroke-width="3" stroke-dasharray="1,2" d="M50 224l924 0"/>
<text stroke="none" fill="white" font-size="16" x="18" y="232">
2.5
</text>
<path stroke="white" stroke-width="3" stroke-dasharray="1,2" d="M50 144l924 0"/>
<text stroke="none" fill="white" font-size="16" x="18" y="152">
3.0
</text>
<path stroke="white" stroke-width="3" stroke-dasharray="1,2" d="M50 64l924 0"/>
<text stroke="none" fill="white" font-size="16" x="18" y="72">
3.5
</text>
<text stroke="none" fill="white" font-size="16" x="10" y="32">
V
</text>
<path stroke="red" d="M462 23l46 0"/>
<text stroke="none" fill="white" font-size="16" x="518" y="32">
d0
</text>
<path stroke="red" d="M50 624l12 0 0 -288 13 0M75 624l0 -288M75 624l12 0 0 -288 12 0M99 624l0 -288M99 624l13 0 0 -288 12 0M124 624l0 -288M124 624l12 0 0 -288 13 0M149 624l0 -288M149 624l12 0 0 -288 12 0M173 624l0 -288M173 624l13 0 0 -288 12 0"/>
<path stroke="red" d="M198 624l0 -288M198 624l12 0 0 -288 12 0M222 624l0 -288M222 624l13 0 0 -288 12 0M247 624l0 -288M247 624l12 0 0 -288 13 0M272 624l0 -288M272 624l12 0 0 -288 12 0M296 624l0 -288M296 624l13 0 0 -288 12 0M321 624l0 -288M321 624l12 0"/>
<path stroke="red" d="M333 624l0 -288 13 0M346 624l0 -288M346 624l12 0 0 -288 12 0M370 624l0 -288M370 624l13 0 0 -288 12 0M395 624l0 -288M395 624l12 0 0 -288 13 0M420 624l0 -288M420 624l12 0 0 -288 12 0M444 624l0 -288M444 624l13 0 0 -288 12 0"/>
<path stroke="red" d="M469 624l0 -288M469 624l12 0 0 -288 13 0M494 624l0 -288M494 624l12 0 0 -288 12 0M518 624l0 -288M518 624l12 0 0 -288 13 0M543 624l0 -288M543 624l12 0 0 -288 12 0M567 624l0 -288M567 624l13 0 0 -288 12 0M592 624l0 -288M592 624l12 0"/>
<path stroke="red" d="M604 624l0 -288 13 0M617 624l0 -288M617 624l12 0 0 -288 12 0M641 624l0 -288M641 624l13 0 0 -288 12 0M666 624l0 -288M666 624l12 0 0 -288 13 0M691 624l0 -288M691 624l12 0 0 -288 12 0M715 624l0 -288M715 624l13 0 0 -288 12 0"/>
<path stroke="red" d="M740 624l0 -288M740 624l12 0 0 -288 13 0M765 624l0 -288M765 624l12 0 0 -288 12 0M789 624l0 -288M789 624l13 0 0 -288 12 0M814 624l0 -288M814 624l12 0 0 -288 12 0"/>
<path stroke="blue" d="M50 23l46 0"/>
<text stroke="none" fill="white" font-size="16" x="106" y="32">
d1
</text>
<path stroke="blue" d="M50 624l25 0 0 -288 24 0M99 624l0 -288M99 624l25 0 0 -288 25 0M149 624l0 -288M149 624l24 0 0 -288 25 0M198 624l0 -288M198 624l24 0 0 -288 25 0M247 624l0 -288M247 624l25 0 0 -288 24 0M296 624l0 -288M296 624l25 0 0 -288 25 0"/>
<path stroke="blue" d="M346 624l0 -288M346 624l24 0 0 -288 25 0M395 624l0 -288M395 624l25 0 0 -288 24 0M444 624l0 -288M444 624l25 0 0 -288 25 0M494 624l0 -288M494 624l24 0 0 -288 25 0M543 624l0 -288M543 624l24 0 0 -288 25 0M592 624l0 -288M592 624l25 0"/>
<path stroke="blue" d="M617 624l0 -288 24 0M641 624l0 -288M641 624l25 0 0 -288 25 0M691 624l0 -288M691 624l24 0 0 -288 25 0M740 624l0 -288M740 624l25 0 0 -288 24 0M789 624l0 -288M789 624l25 0 0 -288 24 0"/>
<path stroke="#FFA500" d="M462 39l46 0"/>
<text stroke="none" fill="white" font-size="16" x="518" y="48">
d2
</text>
<path stroke="#FFA500" d="M50 624l49 0 0 -288 50 0M149 624l0 -288M149 624l49 0 0 -288 49 0M247 624l0 -288M247 624l49 0 0 -288 50 0M346 624l0 -288M346 624l49 0 0 -288 49 0M444 624l0 -288M444 624l50 0 0 -288 49 0M543 624l0 -288M543 624l49 0 0 -288"/>
<path stroke="#FFA500" d="M592 336l49 0M641 624l0 -288M641 624l50 0 0 -288 49 0M740 624l0 -288M740 624l49 0 0 -288 49 0"/>
<path stroke="green" d="M50 39l46 0"/>
<text stroke="none" fill="white" font-size="16" x="106" y="48">
d3
</text>
<path stroke="green" d="M50 624l99 0 0 -288 98 0M247 624l0 -288M247 624l99 0 0 -288 98 0M444 624l0 -288M444 624l99 0 0 -288 98 0M641 624l0 -288M641 624l99 0 0 -288 98 0"/>
<path stroke="#FFC0C5" d="M462 55l46 0"/>
<text stroke="none" fill="white" font-size="16" x="518" y="64">
vout
</text>
<path stroke="#FFC0C5" d="M50 366l0 -32M50 341l1 20M51 385l0 -24M51 385l1 54M52 501l0 -62M52 501l1 55M53 568l0 -12M53 568l1 12M54 598l0 -18M54 598l2 17 3 9 4 0 1 1 1 -1 1 -5 1 -4 2 -2 1 1 1 -1 4 0M75 614l0 -1M75 614l1 3M76 619l0 -2M76 619l1 -2"/>
<path stroke="#FFC0C5" d="M77 617l0 -5 1 -2 0 -1 1 -1 1 0 0 -1 1 0 0 -1 6 0 1 1M88 608l0 -1M88 608l1 0 0 -1 2 -6 0 -1 1 -2 0 -1 1 0 1 -1 1 1 0 -1 5 0M100 602l0 -6M100 602l1 7 1 -8 0 -5 2 -4 2 0 0 -1 1 0 1 1 0 -1 7 0M115 593l0 -2M115 593l1 0 0 -4"/>
<path stroke="#FFC0C5" d="M116 589l1 -4 0 -2 2 -2 0 -1 3 0 0 -1 2 0 2 2 1 3 0 -2 1 -4 0 -1 1 0 3 -3 1 1 0 -1 4 0 1 1 1 -1M139 575l0 -1M139 575l1 2 0 -1 2 -8 0 -1 1 -2 0 -1 1 -1 2 0 0 -1 3 0M149 563l0 -2M149 563l1 13M150 594l0 -18M150 594l1 -11"/>
<path stroke="#FFC0C5" d="M151 583l0 -17 1 -9 0 -1 2 4 2 2 1 -1 3 0 1 -1 2 0 1 -1 1 0M165 560l0 -1M165 560l1 2 0 -1 1 -5 1 -3 0 -2 1 -2 0 -1 1 -1 2 0 0 -1 4 0 1 4M177 553l0 -3M177 553l1 -2 0 -4 1 -1 0 -1 1 -1 1 0 0 -1 1 -1 8 0M190 543l0 -1M190 543l1 1"/>
<path stroke="#FFC0C5" d="M191 544l0 -3 1 -4 1 -3 0 -2 1 -1 0 -1 2 0 0 -1 1 0 1 -1 1 1 1 -1M200 532l0 -4M200 532l1 2 0 -9 1 -7 2 4M204 524l0 -2M204 524l1 1 1 0M206 526l0 -1M206 526l1 1 8 0 0 -1 1 0 1 1 1 -4 0 -4 1 -2 1 -1 0 -2 1 0 0 -1 2 0 0 -1"/>
<path stroke="#FFC0C5" d="M223 512l1 0 1 1 1 0M226 515l0 -2M226 515l1 3 1 1 0 -4 1 -1 0 -1 1 -1 1 0 0 -1 1 -1 8 0 1 -1M241 510l0 -1M241 510l1 0 0 -3 1 -4 0 -2 1 -2 1 -1 0 -1 1 -1 1 0 0 -2 1 6M248 536l0 -36M248 536l1 5 1 -12 1 -27 0 -26 1 -6M252 474l0 -4"/>
<path stroke="#FFC0C5" d="M252 474l1 4M253 480l0 -2M253 480l1 4 1 6M255 492l0 -2M255 492l2 2M257 495l0 -1M257 495l8 0 0 -1 1 0 0 -1 1 1M267 496l0 -2M267 496l1 -2 1 -4 0 -4 1 -2 0 -2 2 -2 1 0 0 -1 2 0 1 1 1 4M277 487l0 -3M277 487l2 -6 2 -2 0 -1"/>
<path stroke="#FFC0C5" d="M281 478l8 0 0 -1 2 0 1 1 1 -3 1 -4 0 -3 1 -2 0 -1 1 -2 2 0 0 -1 1 0 1 5 1 3 0 -12 1 -11 0 -1 1 3 1 1 1 3M305 456l0 -3M305 456l1 2 1 1M307 460l0 -1M307 460l2 2 1 0 1 1 3 0 1 -1 1 0 0 -1 1 0 1 1 1 -2 0 -4 1 -3 1 -2 0 -2"/>
<path stroke="#FFC0C5" d="M321 449l1 0 0 -1 1 -1 1 0 0 -1 1 0 1 1 1 2M327 451l0 -2M327 451l1 0 1 -4 0 -3 1 1 4 0 1 1 2 0 1 -1 3 0 0 -1 1 0 1 1 0 -1 1 -3 1 -4 0 -2 1 -2 0 -1 1 0 0 -1 1 0M348 437l0 -6M348 437l1 -2 1 -17 0 -10 1 -1 0 -3 1 -2 1 3"/>
<path stroke="#FFC0C5" d="M353 409l0 -4M353 409l1 3M354 414l0 -2M354 414l1 2M355 418l0 -2M355 418l1 4 1 2M357 426l0 -2M357 426l1 2 3 3 1 0M362 432l0 -1M362 432l1 0 1 -1 1 0 0 -1 1 0 0 -1 1 -1 1 0M368 429l0 -1M368 429l1 1 0 -1 1 -4 0 -2 1 0 0 -3"/>
<path stroke="#FFC0C5" d="M371 420l1 -2 0 -1 1 -1 1 0 0 -1 1 -1M375 415l0 -1M375 415l1 0 1 -1M377 416l0 -2M377 416l1 3 1 -5 1 -3 1 1M381 413l0 -1M381 413l4 0M385 414l0 -1M385 414l1 -1 1 0M387 414l0 -1M387 414l1 -1 2 0 1 -1 1 0 0 -1 1 0M393 412l0 -1"/>
<path stroke="#FFC0C5" d="M393 412l1 -1 1 -4 0 -3 1 -1 0 -2 1 -1 0 -1 1 0 0 -1 2 4 0 -3 1 -8 0 -7 1 -4 1 -2M403 380l0 -2M403 380l1 2 1 0M405 383l0 -1M405 383l1 0M406 385l0 -2M406 385l1 3M407 390l0 -2M407 390l1 0M408 392l0 -2M408 392l1 1M409 394l0 -1"/>
<path stroke="#FFC0C5" d="M409 394l1 0M410 395l0 -1M410 395l1 1M411 397l0 -1M411 397l2 0 1 1 1 -1 1 0 3 -3M419 395l0 -1M419 395l1 0 0 -2 1 -2 0 -2 1 -2 0 -2 4 -4 1 0M427 382l0 -1M427 382l1 2 1 0 0 -4 1 -3 1 -1 1 2 2 2 1 0M435 381l0 -1M435 381l4 0"/>
<path stroke="#FFC0C5" d="M439 381l0 -1 2 0 2 -2 1 0 0 -15M444 377l1 5M445 401l0 -19 1 -78 0 -74 1 -16M447 223l0 -9M447 223l1 14M448 248l0 -11M448 248l1 5 1 3M450 265l0 -9M450 265l1 9M451 281l0 -7M451 281l1 6 1 3M453 294l0 -4M453 294l1 7M454 308l0 -7"/>
<path stroke="#FFC0C5" d="M454 308l1 7 1 4M456 322l0 -3M456 322l1 3M457 330l0 -5M457 330l1 3M458 340l0 -7M458 340l1 4 1 3M460 349l0 -2M460 349l1 2M461 353l0 -2M461 353l1 2M462 357l0 -2M462 357l2 2M464 360l0 -1M464 360l1 0M465 361l0 -1M465 361l2 0"/>
<path stroke="#FFC0C5" d="M467 361l1 -1 1 0 0 -1M469 360l1 0 1 -2 1 -4 0 -1 1 -2 1 -1 0 -1 2 -2 1 0 1 1 1 2 1 -3 0 -3 1 -1 0 -1 1 1M482 344l0 -1M482 344l3 3 1 0M486 348l0 -1M486 348l2 0M488 349l0 -1M488 349l1 0 1 -1 1 0 2 -2 2 0 0 -3 1 -3 0 -2"/>
<path stroke="#FFC0C5" d="M496 338l1 -1 1 -2 0 -1 1 1M499 336l0 -1M499 336l1 -4 1 -7 0 -6 1 -5 1 -3 0 -2 1 1M504 312l0 -2M504 312l1 1M505 314l0 -1M505 314l1 1 1 0M507 316l0 -1M507 316l1 2M508 320l0 -2M508 320l1 2M509 324l0 -2M509 324l1 1M510 326l0 -1"/>
<path stroke="#FFC0C5" d="M510 326l1 2 1 1M512 330l0 -1M512 330l1 0 1 1 3 0 3 -3 1 0 1 -2 0 -3 1 -2 0 -1 1 -1 0 -1 3 -3 2 2 0 -1 1 -2 0 -2 1 0 0 -3 1 0 2 2M534 312l0 -1M534 312l3 3 2 0M539 316l0 -1M539 316l1 -1 2 0 0 -1 1 0 1 1 0 -1 1 -1 0 -1"/>
<path stroke="#FFC0C5" d="M545 312l1 -2 0 -1 1 2 0 -2 1 -11 0 -16 1 -9 1 -1M550 273l0 -1M550 273l1 0 0 -1 1 0 1 -2 0 -1 1 0M554 272l0 -3M554 272l1 3M555 277l0 -2M555 277l1 1M556 279l0 -1M556 279l1 0M557 280l0 -1M557 280l2 2M559 284l0 -2M559 284l1 2"/>
<path stroke="#FFC0C5" d="M560 288l0 -2M560 288l1 2M561 291l0 -1M561 291l1 1M562 293l0 -1M562 293l2 2M564 296l0 -1M564 296l1 0M565 297l0 -1M565 297l2 0 0 -1 2 0 0 -1 1 -1 1 0 1 -1 1 -2 0 -2 1 -2 0 -1 3 -3 1 0 1 1 1 -1 0 -2 1 -1 0 -1 1 -2 0 -1"/>
<path stroke="#FFC0C5" d="M582 276l1 0M583 277l0 -1M583 277l1 1M584 279l0 -1M584 279l1 1 1 0M586 281l0 -1M586 281l2 0M588 282l0 -1M588 282l4 0 0 -1 1 0 3 -3 0 -1 1 -2 0 -1 1 -2 1 -1 0 -2 1 -5 0 -8 1 -5 1 -4 0 -2 1 -3 0 -2 1 1M604 243l0 -2M604 243l1 0"/>
<path stroke="#FFC0C5" d="M605 246l0 -3M605 246l1 1M606 248l0 -1M606 248l1 1M607 250l0 -1M607 250l1 0 2 4M610 256l0 -2M610 256l1 2M611 259l0 -1M611 259l2 2M613 262l0 -1M613 262l1 0M614 263l0 -1M614 263l1 0 1 1 1 -1 1 0 2 -2 1 0 0 -1 1 0 0 -2"/>
<path stroke="#FFC0C5" d="M622 258l2 -4 0 -2 3 -3 1 0 1 1 1 -1 0 -2 1 -2 0 -1 1 0 1 -1 0 -1 1 1M634 245l0 -2M634 245l1 1M635 247l0 -1M635 247l1 0M636 248l0 -1M636 248l1 0 1 1 3 0 0 -1M641 249l1 0M642 251l0 -2M642 251l1 -1 0 -1 1 -3 0 -6 1 -10"/>
<path stroke="#FFC0C5" d="M645 230l0 -32 1 -17M646 188l0 -7M646 188l1 2 1 -5 0 -5 1 4 1 7M650 193l0 -2M650 193l1 2 1 1 2 -2M654 198l0 -4M654 198l1 3M655 205l0 -4M655 205l1 2M656 210l0 -3M656 210l1 2M657 213l0 -1M657 213l1 2 1 0M659 216l0 -1M659 216l1 3"/>
<path stroke="#FFC0C5" d="M660 221l0 -2M660 221l1 3 1 1M662 227l0 -2M662 227l1 1M663 229l0 -1M663 229l1 0 1 1 2 0 3 -3 1 0 2 -2 1 -3 0 -2 1 -1 0 -1 2 -2 0 -1 1 0M678 217l0 -2M678 217l1 0M679 218l0 -1M679 218l1 -1 0 -2 1 -2 0 -1 1 -1 0 -1 1 -2"/>
<path stroke="#FFC0C5" d="M683 208l1 0M684 209l0 -1M684 209l1 2M685 213l0 -2M685 213l3 3 2 0 1 -1 1 0 0 -1 1 0 0 -1 1 0 1 -1 0 -2 1 0 1 1 0 -2 1 -2 0 -2 1 -4 1 -11 0 -8 1 -2 0 -3 1 -2 1 -1 0 -3 1 -2M704 173l0 -4M704 173l1 4M705 180l0 -3M705 180l2 4"/>
<path stroke="#FFC0C5" d="M707 185l0 -1M707 185l1 1M708 187l0 -1M708 187l1 0 1 1 1 3M711 193l0 -2M711 193l1 2M712 196l0 -1M712 196l1 1 1 0M714 198l0 -1M714 198l1 -1 2 0 3 -3 1 0 1 -1 0 -1 1 0 1 -2 0 -2 1 -2 1 -1 0 -1 1 -1 1 0M728 184l0 -1M728 184l1 0"/>
<path stroke="#FFC0C5" d="M729 185l0 -1M729 185l1 1 0 -2 1 -3 0 -1 1 -1 0 -1 1 -1 0 -1 1 -1M734 176l0 -1M734 176l2 4M736 181l0 -1M736 181l1 1M737 183l0 -1M737 183l3 0 0 -1 1 0 0 -1 2 0 0 -1 1 -1 0 -2 1 -2 1 -8 0 -15 1 -8 0 -7 1 -5 1 5M749 142l0 -5"/>
<path stroke="#FFC0C5" d="M749 142l1 -1 0 -2 1 -1 0 -1 1 0 1 1 0 -1 1 -3M754 135l0 -1M754 135l1 5M755 145l0 -5M755 145l1 3M756 149l0 -1M756 149l1 2M757 152l0 -1M757 152l1 2M758 155l0 -1M758 155l1 0 1 -1 1 2M761 159l0 -3M761 159l1 2 1 1M763 163l0 -1"/>
<path stroke="#FFC0C5" d="M763 163l4 0 1 -1 1 0 1 -1 1 0 0 -1 2 0 1 -1 0 -2 1 -2 1 -1 0 -1 1 -1 1 0 1 1M779 154l0 -1M779 154l1 0 1 -4 0 -3 1 -1 0 -1 1 0 0 -1 2 -2M785 143l0 -1M785 143l1 2M786 147l0 -2M786 147l2 2 1 -1 1 0 1 -1 1 0 1 -1 1 0 2 -2"/>
<path stroke="#FFC0C5" d="M796 144l1 -2 1 1 0 -1 1 -7 0 -6 2 -8 0 -4 1 -1 0 -2 1 0 0 -3 1 -2 1 3M805 116l0 -4M805 116l1 2M806 119l0 -1M806 119l1 1M807 121l0 -1M807 121l2 2 1 0 0 -1 1 1 1 3M812 128l0 -2M812 128l1 0 1 1 6 0 0 -1 3 0 1 -1 1 0 0 -2"/>
<path stroke="#FFC0C5" d="M825 125l1 -2 1 -1 2 0 1 1 0 -2 1 -4 0 -2 1 -1 0 -1 2 -2 0 -1 1 -1 0 -1 1 1 1 3 1 1"/>
</svg>
