<?xml version="1.0" standalone="yes"?>
<!DOCTYPE svg PUBLIC "-//W3C//DTD SVG 1.1//EN"
 "http://www.w3.org/Graphics/SVG/1.1/DTD/svg11.dtd">
<svg xmlns="http://www.w3.org/2000/svg" version="1.1"
  width="100%" height="100%" viewBox="0 0 1024 768"
  style="fill: none; stroke-width: 3; font-family: Helvetica;
 font: Helvetica;
">

<!-- Creator: NGspice -->

<rect x="0" y="0" width="1024" height="768" fill="black" stroke="none"/>
<text stroke="none" fill="white" font-size="16" x="358" y="752">
time
</text>
<text stroke="none" fill="white" font-size="16" x="10" y="16">
tran2: * spice3 file created from 4_bit_dac.ext - technology: sky130a
</text>
<path stroke="white" stroke-width="3" d="M50 704l0 -640"/>
<text stroke="none" fill="white" font-size="16" x="35" y="728">
0.0
</text>
<path stroke="white" stroke-width="3" stroke-dasharray="1,2" d="M182 704l0 -640"/>
<text stroke="none" fill="white" font-size="16" x="162" y="728">
20.0
</text>
<path stroke="white" stroke-width="3" stroke-dasharray="1,2" d="M314 704l0 -640"/>
<text stroke="none" fill="white" font-size="16" x="294" y="728">
40.0
</text>
<path stroke="white" stroke-width="3" stroke-dasharray="1,2" d="M446 704l0 -640"/>
<text stroke="none" fill="white" font-size="16" x="426" y="728">
60.0
</text>
<path stroke="white" stroke-width="3" stroke-dasharray="1,2" d="M578 704l0 -640"/>
<text stroke="none" fill="white" font-size="16" x="558" y="728">
80.0
</text>
<path stroke="white" stroke-width="3" stroke-dasharray="1,2" d="M710 704l0 -640"/>
<text stroke="none" fill="white" font-size="16" x="685" y="728">
100.0
</text>
<path stroke="white" stroke-width="3" stroke-dasharray="1,2" d="M842 704l0 -640"/>
<text stroke="none" fill="white" font-size="16" x="817" y="728">
120.0
</text>
<path stroke="white" stroke-width="3" stroke-dasharray="1,2" d="M974 704l0 -640"/>
<text stroke="none" fill="white" font-size="16" x="949" y="728">
140.0
</text>
<text stroke="none" fill="white" font-size="16" x="614" y="752">
ns
</text>
<path stroke="white" stroke-width="3" stroke-dasharray="1,2" d="M50 704l924 0"/>
<text stroke="none" fill="white" font-size="16" x="8" y="712">
-0.5
</text>
<path stroke="white" stroke-width="3" d="M50 624l924 0"/>
<text stroke="none" fill="white" font-size="16" x="18" y="632">
0.0
</text>
<path stroke="white" stroke-width="3" stroke-dasharray="1,2" d="M50 544l924 0"/>
<text stroke="none" fill="white" font-size="16" x="18" y="552">
0.5
</text>
<path stroke="white" stroke-width="3" stroke-dasharray="1,2" d="M50 464l924 0"/>
<text stroke="none" fill="white" font-size="16" x="18" y="472">
1.0
</text>
<path stroke="white" stroke-width="3" stroke-dasharray="1,2" d="M50 384l924 0"/>
<text stroke="none" fill="white" font-size="16" x="18" y="392">
1.5
</text>
<path stroke="white" stroke-width="3" stroke-dasharray="1,2" d="M50 304l924 0"/>
<text stroke="none" fill="white" font-size="16" x="18" y="312">
2.0
</text>
<path stroke="white" stroke-width="3" stroke-dasharray="1,2" d="M50 224l924 0"/>
<text stroke="none" fill="white" font-size="16" x="18" y="232">
2.5
</text>
<path stroke="white" stroke-width="3" stroke-dasharray="1,2" d="M50 144l924 0"/>
<text stroke="none" fill="white" font-size="16" x="18" y="152">
3.0
</text>
<path stroke="white" stroke-width="3" stroke-dasharray="1,2" d="M50 64l924 0"/>
<text stroke="none" fill="white" font-size="16" x="18" y="72">
3.5
</text>
<text stroke="none" fill="white" font-size="16" x="10" y="32">
V
</text>
<path stroke="red" d="M462 23l46 0"/>
<text stroke="none" fill="white" font-size="16" x="518" y="32">
d0
</text>
<path stroke="red" d="M50 624l26 0 0 -288 27 0M103 624l0 -288M103 624l26 0 0 -288 27 0M156 624l0 -288M156 624l26 0 0 -288 26 0M208 624l0 -288M208 624l27 0 0 -288 26 0M261 624l0 -288M261 624l27 0 0 -288 26 0M314 624l0 -288M314 624l26 0 0 -288"/>
<path stroke="red" d="M340 336l27 0M367 624l0 -288M367 624l26 0 0 -288 27 0M420 624l0 -288M420 624l26 0 0 -288 26 0M472 624l0 -288M472 624l27 0 0 -288 26 0M525 624l0 -288M525 624l27 0 0 -288 26 0M578 624l0 -288M578 624l26 0 0 -288 27 0M631 624l0 -288"/>
<path stroke="red" d="M631 624l26 0 0 -288 27 0M684 624l0 -288M684 624l26 0 0 -288 26 0M736 624l0 -288M736 624l27 0 0 -288 26 0M789 624l0 -288M789 624l27 0 0 -288 26 0M842 624l0 -288M842 624l26 0 0 -288 27 0"/>
<path stroke="blue" d="M50 23l46 0"/>
<text stroke="none" fill="white" font-size="16" x="106" y="32">
d1
</text>
<path stroke="blue" d="M50 624l53 0 0 -288 53 0M156 624l0 -288M156 624l52 0 0 -288 53 0M261 624l0 -288M261 624l53 0 0 -288 53 0M367 624l0 -288M367 624l53 0 0 -288 52 0M472 624l0 -288M472 624l53 0 0 -288 53 0M578 624l0 -288M578 624l53 0 0 -288"/>
<path stroke="blue" d="M631 336l53 0M684 624l0 -288M684 624l52 0 0 -288 53 0M789 624l0 -288M789 624l53 0 0 -288 53 0"/>
<path stroke="#FFA500" d="M462 39l46 0"/>
<text stroke="none" fill="white" font-size="16" x="518" y="48">
d2
</text>
<path stroke="#FFA500" d="M50 624l106 0 0 -288 105 0M261 624l0 -288M261 624l106 0 0 -288 105 0M472 624l0 -288M472 624l106 0 0 -288 106 0M684 624l0 -288M684 624l105 0 0 -288 106 0"/>
<path stroke="green" d="M50 39l46 0"/>
<text stroke="none" fill="white" font-size="16" x="106" y="48">
d3
</text>
<path stroke="green" d="M50 624l211 0 0 -288 211 0M472 624l0 -288M472 624l212 0 0 -288 211 0"/>
<path stroke="#FFC0C5" d="M462 55l46 0"/>
<text stroke="none" fill="white" font-size="16" x="518" y="64">
vout
</text>
<path stroke="#FFC0C5" d="M50 375l0 -54 1 5M51 359l0 -33M51 359l1 63M52 498l0 -76M52 498l1 50 1 30M54 597l0 -19M54 597l1 11 1 6M56 618l0 -4M56 618l1 3 1 1M58 623l0 -1M58 623l2 0M60 624l0 -1M60 624l17 0M77 625l0 -1M77 625l2 2 1 0 0 -1 1 -1 1 -4"/>
<path stroke="#FFC0C5" d="M82 621l0 -9 1 -9 1 -7 0 -4 1 -4 1 -2 0 -1 7 0 1 1 9 0 0 -1M103 586l1 4 1 9M105 607l0 -8M105 607l1 2 1 -8 0 -16 1 -13 1 -7 0 -5 1 -3 1 -2 1 0 1 -1 6 0 0 -1 11 0M130 554l0 -1M130 554l1 1M131 556l0 -1M131 556l1 1 1 0 1 -1"/>
<path stroke="#FFC0C5" d="M134 556l1 -2 0 -5 1 -7 0 -7 2 -10 0 -3 1 0 1 -1 0 -1 6 0M146 521l0 -1M146 521l10 0 0 -2 1 13M157 560l0 -28M157 560l1 22 1 8 0 -12 1 -38 1 -34 0 -11 1 -1 2 0 1 -1 0 -1 1 -1 1 0 1 -1 2 0 1 -1 12 0 1 1 1 0 1 -1 1 0 0 -1"/>
<path stroke="#FFC0C5" d="M187 488l1 0 1 3M189 496l0 -5M189 496l1 1 1 -3 0 -7 2 -14 0 -5 1 -4 1 -2 0 -2 1 -1 1 -2 1 0 1 -1 1 1 8 0 0 -1M208 457l2 0M210 458l0 -1M210 458l1 1 1 -1 0 -2 1 5 1 8 2 -20 0 -7 1 -3 1 -4 0 -3 2 -2 0 -1 3 -3 1 0 1 -1 6 0"/>
<path stroke="#FFC0C5" d="M231 425l1 -1 3 0M235 425l0 -1M235 425l4 0 0 -1 2 0M241 426l0 -2M241 426l1 2 1 1 0 -2 2 -10 0 -5 1 -5 1 -3 0 -3 2 -4 0 -2 2 -2 2 0 0 -1 8 0 0 -18M261 389l1 2M262 415l0 -24M262 415l1 32 1 -31 0 -97 1 -65 1 -10M266 247l0 -3"/>
<path stroke="#FFC0C5" d="M266 247l1 4 1 10M268 271l0 -10M268 271l1 8 1 6M270 293l0 -8M270 293l2 18M272 319l0 -8M272 319l1 7 1 6M274 337l0 -5M274 337l2 6M276 346l0 -3M276 346l2 4M278 352l0 -2M278 352l2 2M280 355l0 -1M280 355l1 1 1 0M282 357l0 -1"/>
<path stroke="#FFC0C5" d="M282 357l1 1 2 0 1 1 2 0 1 1 3 0 2 -2 1 1 1 0 1 1 1 2M298 363l0 -1M298 363l1 -2 1 -4 0 -5 1 -4 0 -4 2 -6 0 -2 2 -2 0 -1 1 -1 1 0 0 -1 1 -1 1 0 1 -1 3 0 0 -1 2 0M315 329l0 -1M315 329l1 0 1 1 0 -1 2 -2 0 -1 1 1 1 2M321 331l0 -2"/>
<path stroke="#FFC0C5" d="M321 331l1 -4 0 -6 1 -5 1 -3 0 -1 1 -1 1 -2 0 -1 1 -2 1 -1 0 -1 2 -2 0 -1 1 -1 1 0 0 -1 1 0 1 -1 1 0 1 -1 2 0 1 -1 6 0 2 -2 2 0 1 1M350 296l0 -1M350 296l1 0 1 -3 0 -4 2 -8 0 -4 1 -3 1 -2 0 -1 1 -2 2 -2 1 0 0 -1 1 0 1 -1"/>
<path stroke="#FFC0C5" d="M362 265l2 0 0 -1 3 0 0 -2M367 264l2 4 1 -2 1 -4 0 -4 1 -9 1 -32 0 -36 1 -7 1 10M375 193l0 -9M375 193l1 0 1 -2 1 4 1 7M379 207l0 -5M379 207l1 4 1 3M381 217l0 -3M381 217l2 4M383 222l0 -1M383 222l1 2 1 1M385 226l0 -1M385 226l2 2"/>
<path stroke="#FFC0C5" d="M387 228l1 0M388 229l0 -1M388 229l2 0 1 1 4 0M395 231l0 -1M395 231l6 0 1 -1 2 0 0 -1 1 0 1 1 1 -4 1 -6 0 -6 2 -6 0 -1 1 -2 1 -1 0 -1 1 -1 1 0 0 -1 1 0 1 -1 2 0 0 -1 5 0 1 1 1 0 0 -1 1 0 1 -1 1 1 1 -5 0 -14 1 -9 1 2M431 175l0 -2"/>
<path stroke="#FFC0C5" d="M431 175l1 0 1 -1 0 -2 2 -2 0 -1 1 0 1 -1 1 0 1 -1 5 0 1 -1 7 0 1 1 1 0 1 -1 1 0 1 -1 1 0 1 1 0 -2 1 -6 1 -7 0 -5 1 -3 1 -2 0 -2 4 -4 3 0 0 -1 2 0M472 154l0 -20M472 138l1 -8 0 -52 1 106M474 415l0 -231M474 415l1 121 1 35"/>
<path stroke="#FFC0C5" d="M476 600l0 -29M476 600l1 8 1 9M478 620l0 -3M478 620l1 3 1 0M480 624l0 -1M480 624l1 0 1 1 2 0 1 -1 14 0M499 625l0 -1M499 625l1 1 1 0M501 627l0 -1M501 627l1 0 1 -1 0 -1 1 -4 1 -9 0 -9 1 -7 1 -4 0 -4 1 -2 1 -1 6 0 1 1 9 0"/>
<path stroke="#FFC0C5" d="M525 586l0 -1 1 0M526 590l0 -5M526 590l1 9 1 8M528 609l0 -2M528 609l1 -8 1 -16 0 -13 1 -7 1 -5 0 -3 1 -2 1 0 1 -1 6 0 1 -1 10 0M552 554l0 -1M552 554l2 2M554 557l0 -1M554 557l2 0 0 -1 1 -2 1 -5 0 -7 1 -7 1 -5 0 -5 1 -3"/>
<path stroke="#FFC0C5" d="M561 522l1 0 0 -1 1 -1 5 0 1 1 9 0 0 -2 1 0M579 532l0 -13M579 532l1 28 1 22M581 590l0 -8M581 590l1 -12 1 -38 0 -34 1 -11 0 -1 2 0 2 -2 0 -1 2 0 0 -1 2 0 1 -1 13 0M606 490l0 -1M606 490l2 0 0 -1 1 0 1 -1 1 3 1 5M612 497l0 -1"/>
<path stroke="#FFC0C5" d="M612 497l1 -3 1 -7 0 -7 1 -7 1 -5 0 -4 2 -4 0 -1 1 -2 1 0 1 -1 1 0M622 457l0 -1M622 457l9 0 0 -1M631 457l1 0 1 1M633 459l0 -1M633 459l1 -1 1 -2M635 461l0 -5M635 461l1 8 1 0 0 -10 1 -10 1 -7 0 -3 1 -4 1 -3 0 -1 2 -2 0 -1"/>
<path stroke="#FFC0C5" d="M643 428l1 -1 1 0 0 -1 2 0 0 -1 7 0 0 -1 4 0M658 425l0 -1M658 425l3 0 1 -1 1 0 1 2M664 428l0 -2M664 428l1 1 1 -2 0 -5 2 -10 0 -5 2 -6 0 -2 2 -4 0 -1 1 -1 2 0 1 -1 8 0M684 393l0 -19M684 393l1 22M685 447l0 -32M685 447l1 -31"/>
<path stroke="#FFC0C5" d="M686 416l1 -97 0 -65 1 -10 1 3M689 251l0 -4M689 251l2 20M691 279l0 -8M691 279l1 6 1 8M693 302l0 -9M693 302l1 9 1 8M695 326l0 -7M695 326l1 6 1 5M697 340l0 -3M697 340l2 6M699 348l0 -2M699 348l2 4M701 353l0 -1M701 353l2 2"/>
<path stroke="#FFC0C5" d="M703 356l0 -1M703 356l1 0 1 1M705 358l0 -1M705 358l2 0 1 1 3 0M711 360l0 -1M711 360l4 0 0 -1 1 -1 1 0M717 359l0 -1M717 359l2 0M719 360l0 -1M719 360l1 2 1 1 0 -2 1 -4 1 -5 0 -4 1 -4 1 -3 0 -3 1 -2 1 -1 0 -1 3 -3 0 -1"/>
<path stroke="#FFC0C5" d="M730 330l2 0 0 -1 3 0 1 -1 1 0 2 2 1 -1 0 -1 2 -2M742 327l0 -1M742 327l2 4 0 -4 1 -6 1 -5 0 -3 2 -2 0 -2 1 -1 1 -2 0 -1 1 -1 0 -1 2 -2 0 -1 1 0 2 -2 1 0 1 -1 3 0 0 -1 6 0 1 -1 1 0 0 -1 2 0 2 2 1 -3 1 -4 0 -4 2 -8 0 -3"/>
<path stroke="#FFC0C5" d="M777 274l1 -2 1 -1 0 -2 1 -1 1 0 0 -1 1 0 2 -2 2 0 1 -1 2 0 0 -2M789 264l1 0M790 266l0 -2M790 266l1 2 1 0 0 -2 2 -8 0 -9 1 -32 1 -36 0 -7 1 10 1 9 1 -2 1 0M800 195l0 -4M800 195l1 7 1 5M802 211l0 -4M802 211l2 6M804 219l0 -2"/>
<path stroke="#FFC0C5" d="M804 219l1 2 1 1M806 224l0 -2M806 224l2 2M808 227l0 -1M808 227l1 0 2 2 2 0 1 1 3 0 1 1 6 0 0 -1 2 0 1 -1 1 0M828 230l0 -1M828 230l1 0 0 -4 2 -12 0 -3 1 -3 1 -1 0 -2 2 -2 0 -1 1 0 2 -2 2 0 1 -1 5 0 1 1 1 -1 1 0 0 -1 1 0"/>
<path stroke="#FFC0C5" d="M850 199l0 -1M850 199l1 -5 1 -14 0 -9 2 4 1 -1 1 -2 0 -1 3 -3 1 0 1 -1 5 0 1 -1 7 0 1 1 1 0 1 -1 1 0 1 -1 1 0 1 1 1 -2 0 -6 1 -7 1 -5 0 -3 2 -4 0 -1 1 -1 1 0 0 -1 1 0 1 -1 2 0 1 -1 2 0"/>
</svg>
