<?xml version="1.0" standalone="yes"?>
<!DOCTYPE svg PUBLIC "-//W3C//DTD SVG 1.1//EN"
 "http://www.w3.org/Graphics/SVG/1.1/DTD/svg11.dtd">
<svg xmlns="http://www.w3.org/2000/svg" version="1.1"
  width="100%" height="100%" viewBox="0 0 1024 768"
  style="fill: none; font-family: Helvetica;
 font: Helvetica;
">

<!-- Creator: NGspice -->

<rect x="0" y="0" width="1024" height="768" fill="black" stroke="none"/>
<text stroke="none" fill="white" font-size="16" x="358" y="752">
time
</text>
<text stroke="none" fill="white" font-size="16" x="10" y="16">
tran1: * spice3 file created from 8_bit_dac_tx_buffer.ext - technology: sky130a
</text>
<path stroke="white" d="M50 720l0 -666"/>
<text stroke="none" fill="white" font-size="16" x="35" y="728">
0.0
</text>
<path stroke="white" stroke-dasharray="1,2" d="M204 720l0 -666"/>
<text stroke="none" fill="white" font-size="16" x="184" y="728">
50.0
</text>
<path stroke="white" stroke-dasharray="1,2" d="M358 720l0 -666"/>
<text stroke="none" fill="white" font-size="16" x="333" y="728">
100.0
</text>
<path stroke="white" stroke-dasharray="1,2" d="M512 720l0 -666"/>
<text stroke="none" fill="white" font-size="16" x="487" y="728">
150.0
</text>
<path stroke="white" stroke-dasharray="1,2" d="M666 720l0 -666"/>
<text stroke="none" fill="white" font-size="16" x="641" y="728">
200.0
</text>
<path stroke="white" stroke-dasharray="1,2" d="M820 720l0 -666"/>
<text stroke="none" fill="white" font-size="16" x="795" y="728">
250.0
</text>
<path stroke="white" stroke-dasharray="1,2" d="M974 720l0 -666"/>
<text stroke="none" fill="white" font-size="16" x="949" y="728">
300.0
</text>
<text stroke="none" fill="white" font-size="16" x="614" y="752">
us
</text>
<path stroke="white" d="M50 720l924 0"/>
<text stroke="none" fill="white" font-size="16" x="18" y="728">
0.0
</text>
<path stroke="white" stroke-dasharray="1,2" d="M50 646l924 0"/>
<text stroke="none" fill="white" font-size="16" x="18" y="654">
0.5
</text>
<path stroke="white" stroke-dasharray="1,2" d="M50 572l924 0"/>
<text stroke="none" fill="white" font-size="16" x="18" y="580">
1.0
</text>
<path stroke="white" stroke-dasharray="1,2" d="M50 498l924 0"/>
<text stroke="none" fill="white" font-size="16" x="18" y="506">
1.5
</text>
<path stroke="white" stroke-dasharray="1,2" d="M50 424l924 0"/>
<text stroke="none" fill="white" font-size="16" x="18" y="432">
2.0
</text>
<path stroke="white" stroke-dasharray="1,2" d="M50 350l924 0"/>
<text stroke="none" fill="white" font-size="16" x="18" y="358">
2.5
</text>
<path stroke="white" stroke-dasharray="1,2" d="M50 276l924 0"/>
<text stroke="none" fill="white" font-size="16" x="18" y="284">
3.0
</text>
<path stroke="white" stroke-dasharray="1,2" d="M50 202l924 0"/>
<text stroke="none" fill="white" font-size="16" x="18" y="210">
3.5
</text>
<path stroke="white" stroke-dasharray="1,2" d="M50 128l924 0"/>
<text stroke="none" fill="white" font-size="16" x="18" y="136">
4.0
</text>
<path stroke="white" stroke-dasharray="1,2" d="M50 54l924 0"/>
<text stroke="none" fill="white" font-size="16" x="18" y="62">
4.5
</text>
<text stroke="none" fill="white" font-size="16" x="10" y="32">
     
</text>
<path stroke="red" d="M462 23l46 0"/>
<text stroke="none" fill="white" font-size="16" x="518" y="32">
vout+1
</text>
<path stroke="red" d="M50 572l3 0M53 573l0 -3 3 0M56 572l0 -5M56 568l3 0M59 570l0 -4 3 0M62 570l0 -12M62 564l3 0M65 566l0 -4 3 0M68 565l0 -6M68 561l4 0M72 563l0 -4 3 0M75 563l0 -18M75 557l3 0M78 559l0 -4 3 0M81 557l0 -6M81 553l3 0M84 556l0 -5"/>
<path stroke="red" d="M84 551l3 0M87 554l0 -11M87 549l3 0M90 552l0 -5 3 0M93 550l0 -6M93 545l3 0M96 548l0 -5 3 0M99 548l0 -30M99 541l3 0M102 544l0 -4 3 0M105 542l0 -6M105 538l4 0M109 541l0 -5 3 0M112 539l0 -12M112 534l3 0M115 537l0 -5 3 0M118 535l0 -7"/>
<path stroke="red" d="M118 530l3 0M121 533l0 -5 3 0M124 532l0 -17M124 526l3 0M127 530l0 -6 3 0M130 528l0 -8M130 522l3 0M133 526l0 -6 3 0M136 524l0 -12M136 519l3 0M139 522l0 -5 3 0M142 520l0 -7M142 515l3 0M145 518l0 -5 4 0M149 520l0 -54M149 511l3 0"/>
<path stroke="red" d="M152 514l0 -5 3 0M155 513l0 -8M155 507l3 0M158 511l0 -6 3 0M161 509l0 -12M161 503l3 0M164 508l0 -7 3 0M167 504l0 -7M167 500l3 0M170 504l0 -6 3 0M173 501l0 -17M173 496l3 0M176 500l0 -6 3 0M179 497l0 -7M179 492l3 0M182 496l0 -6"/>
<path stroke="red" d="M182 490l4 0M186 494l0 -13M186 488l3 0M189 493l0 -7 3 0M192 490l0 -8M192 484l3 0M195 489l0 -7 3 0M198 487l0 -29M198 480l3 0M201 484l0 -5 3 0M204 481l0 -7M204 477l3 0M207 481l0 -6 3 0M210 479l0 -13M210 473l3 0M213 476l0 -5"/>
<path stroke="red" d="M213 471l3 0M216 474l0 -7M216 469l3 0M219 472l0 -5 3 0M222 471l0 -17M222 462l1 0M223 465l0 -3M223 465l3 0M226 468l0 -5 3 0M229 466l0 -6M229 461l3 0M232 465l0 -6 3 0M235 463l0 -12M235 458l3 0M238 461l0 -5 3 0M241 459l0 -7"/>
<path stroke="red" d="M241 454l3 0M244 457l0 -5 3 0M247 461l0 -101M247 450l3 0M250 453l0 -5 3 0M253 451l0 -7M253 446l3 0M256 450l0 -6 3 0M259 447l0 -11M259 442l4 0M263 446l0 -6 3 0M266 443l0 -7M266 438l3 0M269 442l0 -5 3 0M272 441l0 -17M272 435l3 0"/>
<path stroke="red" d="M275 438l0 -5 3 0M278 435l0 -6M278 431l3 0M281 434l0 -5 3 0M284 432l0 -11M284 427l3 0M287 430l0 -5 3 0M290 428l0 -7M290 423l3 0M293 426l0 -5 3 0M296 426l0 -28M296 418l1 0M297 419l0 -1M297 419l2 0M299 422l0 -3M299 422l1 -1"/>
<path stroke="red" d="M300 421l0 -4 3 0M303 420l0 -6M303 416l3 0M306 419l0 -5 3 0M309 416l0 -10M309 412l3 0M312 415l0 -5 3 0M315 412l0 -6M315 408l3 0M318 411l0 -5 3 0M321 410l0 -16M321 404l3 0M324 409l0 -7 3 0M327 404l0 -5M327 400l3 0M330 404l0 -5"/>
<path stroke="red" d="M330 399l1 -1 2 0M333 401l0 -10M333 396l3 0M336 401l0 -6 4 0M340 397l0 -6M340 393l3 0M343 397l0 -6 3 0M346 396l0 -47M346 389l3 0M349 393l0 -6 3 0M352 389l0 -5M352 385l3 0M355 389l0 -6 3 0M358 385l0 -9M358 381l3 0M361 385l0 -6"/>
<path stroke="red" d="M361 379l3 0M364 381l0 -5M364 377l3 0M367 381l0 -5 1 0 0 -1 2 0M370 378l0 -14M370 373l1 0M371 374l0 -1M371 374l2 0M373 377l0 -5 3 0M376 373l0 -1M376 373l1 -1 0 -3M377 370l3 0M380 373l0 -5 3 0M383 370l0 -9M383 366l3 0M386 369l0 -5"/>
<path stroke="red" d="M386 364l3 0M389 366l0 -5M389 362l3 0M392 365l0 -5 3 0M395 363l0 -23M395 358l3 0M398 361l0 -5 3 0M401 358l0 -5M401 355l3 0M404 357l0 -4 3 0M407 355l0 -9M407 351l3 0M410 353l0 -4 3 0M413 351l0 -6M413 347l4 0M417 349l0 -4"/>
<path stroke="red" d="M417 345l3 0M420 347l0 -14M420 343l3 0M423 345l0 -4 3 0M426 343l0 -5M426 339l3 0M429 341l0 -4 3 0M432 339l0 -9M432 335l3 0M435 337l0 -3 3 0M438 335l0 -5M438 332l3 0M441 334l0 -4 3 0M444 337l0 -218M444 328l3 0M447 330l0 -4"/>
<path stroke="red" d="M447 326l3 0M450 327l0 -5M450 324l4 0M454 326l0 -4 3 0M457 323l0 -8M457 320l3 0M460 322l0 -4 3 0M463 320l0 -5M463 316l3 0M466 318l0 -4 3 0M469 316l0 -13M469 313l3 0M472 315l0 -4 3 0M475 312l0 -5M475 309l3 0M478 311l0 -4"/>
<path stroke="red" d="M478 307l3 0M481 308l0 -8M481 305l3 0M484 307l0 -4 3 0M487 304l0 -5M487 301l3 0M490 303l0 -3 1 0 0 -1 3 0M494 301l0 -21M494 297l3 0M497 299l0 -4 3 0M500 296l0 -4M500 293l3 0M503 295l0 -3 3 0M506 293l0 -9M506 290l3 0M509 292l0 -4"/>
<path stroke="red" d="M509 288l3 0M512 289l0 -5M512 286l3 0M515 288l0 -4 3 0M518 285l0 -12M518 282l3 0M521 284l0 -4 3 0M524 281l0 -4M524 278l3 0M527 280l0 -3 1 0 0 -1 2 0M530 277l0 -3 1 0 0 -5M531 274l3 0M534 276l0 -4 3 0M537 273l0 -4M537 271l3 0"/>
<path stroke="red" d="M540 272l0 -3 3 0M543 270l0 -39M543 267l3 0M546 268l0 -3 3 0M549 266l0 -5M549 263l3 0M552 264l0 -3 3 0M555 262l0 -8M555 259l3 0M558 261l0 -4 3 0M561 258l0 -5M561 255l3 0M564 257l0 -3 1 0 0 -1 2 0M567 254l0 -12M567 249l1 0"/>
<path stroke="red" d="M568 251l0 -2M568 251l3 0M571 253l0 -3 3 0 0 -4M574 248l3 0M577 249l0 -3 3 0 0 -8M580 244l3 0M583 245l0 -3 3 0M586 243l0 -5M586 240l3 0M589 241l0 -3 3 0M592 240l0 -24M592 236l3 0M595 238l0 -4 3 0M598 235l0 -4M598 232l3 0"/>
<path stroke="red" d="M601 234l0 -3 1 0 0 -1M602 231l2 0 0 -8M604 228l1 0M605 229l0 -1M605 229l3 0M608 230l0 -3 3 0M611 228l0 -5M611 225l3 0M614 226l0 -3 3 0 0 -13M617 221l3 0M620 223l0 -4 3 0M623 220l0 -5M623 217l3 0M626 219l0 -4 3 0M629 216l0 -9"/>
<path stroke="red" d="M629 213l3 0M632 215l0 -4 3 0M635 213l0 -6M635 210l3 0M638 211l0 -3 3 0M641 209l0 -99M641 204l1 1M642 206l0 -1M642 206l2 0M644 207l0 -2 1 0 0 -1 3 0M648 205l0 -6M648 202l3 0M651 204l0 -4 3 0M654 201l0 -10M654 198l3 0M657 200l0 -4"/>
<path stroke="red" d="M657 196l3 0M660 197l0 -6M660 194l3 0M663 196l0 -4 3 0M666 193l0 -14M666 190l3 0M669 192l0 -3 3 0M672 190l0 -6M672 187l3 0M675 189l0 -4 3 0 0 -10M678 183l3 0M681 185l0 -4 4 0M685 182l0 -6M685 179l3 0M688 181l0 -4 3 0M691 178l0 -27"/>
<path stroke="red" d="M691 175l3 0M694 177l0 -4 3 0M697 174l0 -6M697 171l3 0M700 173l0 -4 3 0M703 170l0 -10M703 168l3 0M706 169l0 -3 3 0M709 167l0 -7M709 164l3 0M712 166l0 -4 3 0M715 163l0 -16M715 160l3 0M718 162l0 -4 3 0M721 159l0 -7M721 156l4 0"/>
<path stroke="red" d="M725 158l0 -4 3 0M728 155l0 -11M728 152l3 0M731 154l0 -4 3 0M734 151l0 -7M734 148l3 0M737 150l0 -3 3 0 0 -51M740 145l3 0M743 146l0 -3 3 0M746 144l0 -7M746 141l3 0M749 143l0 -4 3 0M752 140l0 -11M752 137l3 0M755 139l0 -4 3 0"/>
<path stroke="red" d="M758 136l0 -8M758 133l4 0M762 135l0 -4 3 0M765 132l0 -16M765 129l3 0M768 131l0 -4 3 0M771 129l0 -9M771 126l3 0M774 127l0 -3 3 0M777 125l0 -12M777 122l3 0M780 124l0 -4 3 0M783 121l0 -8M783 118l3 0M786 120l0 -4 3 0M789 117l0 -30"/>
<path stroke="red" d="M789 114l3 0M792 116l0 -4 3 0M795 113l0 -7M795 110l3 0M798 112l0 -3 1 0 0 -1 3 0M802 109l0 -11M802 107l1 -1 1 1 1 -1M805 108l0 -3 3 0M808 106l0 -8M808 103l3 0M811 104l0 -3 3 0 0 -16M814 99l3 0M817 100l0 -3 3 0M820 98l0 -7"/>
<path stroke="red" d="M820 95l3 0M823 96l0 -3 3 0 0 -9M826 91l3 0M829 92l0 -3 3 0M832 90l0 -5M832 87l3 0M835 88l0 -2 1 0 0 -1 1 1 1 -1M838 572l0 -506M838 572l4 0M842 573l0 -3 3 0M845 572l0 -5M845 568l3 0M848 570l0 -4 3 0"/>
<path stroke="blue" d="M50 23l46 0"/>
<text stroke="none" fill="white" font-size="16" x="106" y="32">
vout_buf
</text>
<path stroke="blue" d="M50 718l3 0 0 -1 3 0 0 -1 3 0 0 -2 3 0 0 -2 1 1 2 0 0 -2 3 0 0 -1 1 0 0 -1 3 0 0 -1 3 0 0 -4M75 706l3 0 0 -2 3 0 0 -2 3 0M84 703l0 -2 3 0 0 -3M87 699l3 0 0 -2 3 0 0 -2 3 0M96 696l0 -2 3 0 0 -11M99 692l3 0 0 -2 3 0 0 -2"/>
<path stroke="blue" d="M105 688l4 0M109 689l0 -3 3 0 0 -4M112 685l3 0 0 -2 3 0 0 -2 3 0M121 682l0 -3 3 0 0 -9M124 677l3 0M127 678l0 -3 3 0M130 676l0 -3 3 0M133 675l0 -3 3 0 0 -6M136 670l3 0M139 671l0 -3 3 0 0 -3M142 666l3 0M145 667l0 -2 1 0 0 -1"/>
<path stroke="blue" d="M146 664l3 0 0 -42M149 662l3 0M152 664l0 -4 3 0M155 661l0 -3 3 0M158 660l0 -3 3 0 0 -8M161 655l3 0M164 657l0 -4 3 0 0 -4M167 651l3 0M170 653l0 -4 3 0 0 -14M173 647l3 0M176 650l0 -5 3 0M179 646l0 -4M179 643l3 0M182 646l0 -5"/>
<path stroke="blue" d="M182 642l1 0 0 -1 3 0M186 642l0 -9M186 640l3 0M189 643l0 -5 3 0M192 639l0 -5M192 636l3 0M195 639l0 -5 3 0 0 -26M198 632l3 0M201 635l0 -5 3 0M204 631l0 -5M204 628l3 0M207 631l0 -5 3 0M210 627l0 -10M210 624l3 0M213 627l0 -5"/>
<path stroke="blue" d="M213 622l3 0M216 624l0 -6M216 621l3 0M219 623l0 -4 3 0 0 -15M222 610l1 1M223 617l0 -6M223 617l3 0M226 620l0 -5 3 0M229 616l0 -5M229 613l3 0M232 616l0 -5 3 0M235 612l0 -10M235 609l3 0M238 612l0 -5 3 0M241 609l0 -6M241 605l3 0"/>
<path stroke="blue" d="M244 608l0 -5 3 0M247 604l0 -119M247 602l3 0M250 605l0 -5 3 0M253 602l0 -7M253 598l3 0M256 601l0 -5 3 0M259 597l0 -10M259 593l1 0M260 594l0 -1M260 594l3 0M263 597l0 -5 3 0M266 594l0 -7M266 590l3 0M269 594l0 -6 3 0M272 589l0 -16"/>
<path stroke="blue" d="M272 586l3 0M275 590l0 -6 3 0M278 586l0 -7M278 582l3 0M281 586l0 -6 3 0M284 582l0 -10M284 578l3 0M287 582l0 -6 3 0M290 579l0 -7M290 574l3 0M293 578l0 -5 3 0M296 574l0 -29M296 569l1 1M297 571l0 -1M297 571l2 0M299 574l0 -3"/>
<path stroke="blue" d="M299 574l1 0 0 -5 3 0M303 571l0 -7M303 567l3 0M306 570l0 -5 3 0M309 567l0 -11M309 563l3 0M312 566l0 -5 3 0M315 563l0 -6M315 559l3 0M318 562l0 -5 3 0M321 559l0 -15M321 555l3 0M324 560l0 -7 3 0M327 555l0 -5M327 551l3 0M330 556l0 -7"/>
<path stroke="blue" d="M330 549l3 0M333 552l0 -11M333 547l3 0M336 552l0 -6 1 0 0 -1 3 0M340 548l0 -6M340 543l3 0M343 548l0 -6 3 0 0 -52M346 540l3 0M349 544l0 -6 3 0M352 540l0 -6M352 536l3 0M355 540l0 -6 3 0M358 536l0 -10M358 532l3 0M361 536l0 -6"/>
<path stroke="blue" d="M361 530l3 0M364 532l0 -6M364 528l3 0M367 532l0 -6 3 0M370 528l0 -15M370 523l1 1 2 0M373 528l0 -5 1 0 0 -1 2 0M376 523l0 -1M376 523l1 1 0 -6M377 520l3 0M380 524l0 -6 3 0M383 520l0 -9M383 516l3 0M386 519l0 -5 3 0M389 516l0 -6"/>
<path stroke="blue" d="M389 512l3 0M392 515l0 -4 3 0M395 512l0 -24M395 509l3 0M398 511l0 -4 3 0M401 509l0 -7M401 505l3 0M404 507l0 -4 3 0M407 505l0 -10M407 501l3 0M410 503l0 -4 3 0M413 501l0 -6M413 497l4 0M417 499l0 -4 3 0M420 496l0 -14M420 493l3 0"/>
<path stroke="blue" d="M423 496l0 -5 3 0M426 493l0 -6M426 489l3 0M429 492l0 -5 3 0M432 489l0 -10M432 485l3 0M435 488l0 -5 3 0M438 486l0 -7M438 481l1 1 0 -1 1 1 1 -1M441 484l0 -4 3 0M444 481l0 -243M444 477l1 1 2 0M447 480l0 -4 3 0M450 478l0 -7"/>
<path stroke="blue" d="M450 474l4 0M454 476l0 -4 3 0M457 473l0 -9M457 470l3 0M460 472l0 -4 3 0M463 470l0 -6M463 466l3 0M466 468l0 -4 3 0M469 465l0 -13M469 462l3 0M472 465l0 -5 3 0M475 462l0 -6M475 458l3 0M478 461l0 -5 3 0M481 458l0 -9M481 455l1 -1"/>
<path stroke="blue" d="M482 455l0 -1M482 455l1 -1 1 1M484 457l0 -4 3 0M487 454l0 -6M487 451l3 0M490 453l0 -3 1 0 0 -1 3 0M494 450l0 -24M494 447l3 0M497 449l0 -4 3 0M500 446l0 -5M500 443l3 0M503 445l0 -4 3 0M506 442l0 -9M506 439l3 0M509 441l0 -4"/>
<path stroke="blue" d="M509 437l3 0M512 438l0 -5M512 435l3 0M515 437l0 -4 3 0M518 434l0 -11M518 431l1 0M519 432l0 -1 1 1 1 -1M521 434l0 -4 3 0M524 431l0 -5M524 428l3 0M527 430l0 -4 3 0M530 427l0 -4 1 0M531 424l0 -6M531 424l3 0M534 426l0 -4 3 0"/>
<path stroke="blue" d="M537 423l0 -5M537 420l3 0M540 422l0 -4 3 0 0 -39M543 416l3 0M546 418l0 -4 3 0M549 415l0 -4M549 412l3 0M552 414l0 -4 3 0M555 411l0 -8M555 408l1 1 2 0M558 410l0 -3 3 0M561 408l0 -6M561 405l3 0M564 406l0 -3 3 0M567 404l0 -13"/>
<path stroke="blue" d="M567 398l1 1M568 401l0 -2M568 401l3 0M571 402l0 -3 3 0M574 400l0 -5M574 397l3 0M577 399l0 -4 3 0M580 396l0 -9M580 393l3 0M583 395l0 -4 3 0M586 392l0 -4M586 390l3 0M589 391l0 -3 3 0 0 -25M592 386l3 0M595 387l0 -3 3 0M598 385l0 -5"/>
<path stroke="blue" d="M598 382l3 0M601 384l0 -4 3 0M604 381l0 -10M604 378l4 0M608 380l0 -4 3 0M611 377l0 -5M611 375l1 -1 2 1M614 376l0 -4M614 373l1 -1 2 1 0 -14M617 371l3 0M620 372l0 -3 3 0M623 370l0 -6M623 367l3 0M626 369l0 -4 3 0M629 366l0 -10"/>
<path stroke="blue" d="M629 363l3 0M632 365l0 -4 3 0M635 362l0 -6M635 359l3 0M638 361l0 -4 3 0 0 -106M641 353l1 1M642 355l0 -1M642 355l2 0M644 357l0 -3 1 1 0 -2 3 0M648 355l0 -7M648 351l1 1 1 -1 1 1M651 354l0 -4 3 0M654 351l0 -11M654 348l3 0"/>
<path stroke="blue" d="M657 350l0 -4 3 0M660 347l0 -6M660 344l3 0M663 346l0 -4 3 0M666 343l0 -15M666 340l3 0M669 342l0 -4 3 0M672 340l0 -7M672 336l3 0M675 338l0 -4 3 0M678 335l0 -11M678 333l1 -1M679 333l0 -1 1 1 1 -1M681 335l0 -4 4 0M685 332l0 -7"/>
<path stroke="blue" d="M685 329l3 0M688 331l0 -4 3 0 0 -28M691 325l3 0M694 327l0 -4 3 0M697 324l0 -7M697 321l3 0M700 323l0 -4 3 0M703 320l0 -11M703 318l1 -1M704 318l0 -1M704 318l1 -1 1 1M706 319l0 -4 3 0M709 317l0 -8M709 314l1 -1 2 0M712 315l0 -3"/>
<path stroke="blue" d="M712 312l3 0 0 -16M715 310l1 -1M716 310l0 -1M716 310l2 0M718 311l0 -3 3 0M721 309l0 -8M721 306l1 1 0 -1 3 0M725 308l0 -4 3 0M728 305l0 -12M728 302l1 1 1 -1 1 1M731 304l0 -4 3 0M734 301l0 -7M734 298l3 0M737 300l0 -4 3 0"/>
<path stroke="blue" d="M740 296l0 -45M740 294l1 1 1 -1 1 1M743 296l0 -3 3 0M746 294l0 -8M746 290l1 1 0 -1 1 1 1 -1M749 292l0 -3 3 0M752 290l0 -12M752 287l3 0M755 289l0 -4 3 0M758 286l0 -8M758 283l4 0M762 285l0 -4 3 0M765 282l0 -16M765 279l3 0"/>
<path stroke="blue" d="M768 281l0 -4 3 0M771 279l0 -9M771 275l1 1 1 -1 1 1M774 278l0 -4 3 0M777 275l0 -11M777 272l3 0M780 274l0 -4 3 0M783 271l0 -8M783 268l3 0M786 270l0 -4 3 0 0 -23M789 264l3 0M792 266l0 -3 1 -1 2 0M795 264l0 -7M795 261l3 0"/>
<path stroke="blue" d="M798 262l0 -3 4 0 0 -9M802 257l3 0M805 259l0 -4 3 0M808 256l0 -6M808 253l3 0M811 255l0 -3 3 0 0 -13M814 250l3 0M817 251l0 -3 3 0M820 249l0 -5M820 246l3 0M823 247l0 -2 3 0 0 -7M826 243l3 0M829 244l0 -3 3 0M832 242l0 -4M832 240l3 0"/>
<path stroke="blue" d="M835 240l0 -2 3 0M838 700l0 -462M838 700l1 1M839 718l0 -17M839 718l3 0 0 -1 3 0 0 -1 3 0 0 -2 3 0"/>
</svg>
