<?xml version="1.0" standalone="yes"?>
<!DOCTYPE svg PUBLIC "-//W3C//DTD SVG 1.1//EN"
 "http://www.w3.org/Graphics/SVG/1.1/DTD/svg11.dtd">
<svg xmlns="http://www.w3.org/2000/svg" version="1.1"
  width="100%" height="100%" viewBox="0 0 1024 768"
  style="fill: none; stroke-width: 2; font-family: Helvetica;
 font: Helvetica;
">

<!-- Creator: NGspice -->

<rect x="0" y="0" width="1024" height="768" fill="black" stroke="none"/>
<text stroke="none" fill="white" font-size="16" x="358" y="752">
time
</text>
<text stroke="none" fill="white" font-size="16" x="10" y="16">
tran1: * spice3 file created from dac_top.ext - technology: sky130a
</text>
<path stroke="white" stroke-width="2" d="M50 704l0 -640"/>
<text stroke="none" fill="white" font-size="16" x="35" y="728">
0.0
</text>
<path stroke="white" stroke-width="2" stroke-dasharray="1,2" d="M142 704l0 -640"/>
<text stroke="none" fill="white" font-size="16" x="127" y="728">
1.0
</text>
<path stroke="white" stroke-width="2" stroke-dasharray="1,2" d="M234 704l0 -640"/>
<text stroke="none" fill="white" font-size="16" x="219" y="728">
2.0
</text>
<path stroke="white" stroke-width="2" stroke-dasharray="1,2" d="M326 704l0 -640"/>
<text stroke="none" fill="white" font-size="16" x="311" y="728">
3.0
</text>
<path stroke="white" stroke-width="2" stroke-dasharray="1,2" d="M418 704l0 -640"/>
<text stroke="none" fill="white" font-size="16" x="403" y="728">
4.0
</text>
<path stroke="white" stroke-width="2" stroke-dasharray="1,2" d="M510 704l0 -640"/>
<text stroke="none" fill="white" font-size="16" x="495" y="728">
5.0
</text>
<path stroke="white" stroke-width="2" stroke-dasharray="1,2" d="M602 704l0 -640"/>
<text stroke="none" fill="white" font-size="16" x="587" y="728">
6.0
</text>
<path stroke="white" stroke-width="2" stroke-dasharray="1,2" d="M694 704l0 -640"/>
<text stroke="none" fill="white" font-size="16" x="679" y="728">
7.0
</text>
<path stroke="white" stroke-width="2" stroke-dasharray="1,2" d="M786 704l0 -640"/>
<text stroke="none" fill="white" font-size="16" x="771" y="728">
8.0
</text>
<path stroke="white" stroke-width="2" stroke-dasharray="1,2" d="M878 704l0 -640"/>
<text stroke="none" fill="white" font-size="16" x="863" y="728">
9.0
</text>
<path stroke="white" stroke-width="2" stroke-dasharray="1,2" d="M970 704l0 -640"/>
<text stroke="none" fill="white" font-size="16" x="950" y="728">
10.0
</text>
<text stroke="none" fill="white" font-size="16" x="614" y="752">
us
</text>
<path stroke="white" stroke-width="2" stroke-dasharray="1,2" d="M50 704l920 0"/>
<text stroke="none" fill="white" font-size="16" x="8" y="712">
-0.5
</text>
<path stroke="white" stroke-width="2" d="M50 624l920 0"/>
<text stroke="none" fill="white" font-size="16" x="18" y="632">
0.0
</text>
<path stroke="white" stroke-width="2" stroke-dasharray="1,2" d="M50 544l920 0"/>
<text stroke="none" fill="white" font-size="16" x="18" y="552">
0.5
</text>
<path stroke="white" stroke-width="2" stroke-dasharray="1,2" d="M50 464l920 0"/>
<text stroke="none" fill="white" font-size="16" x="18" y="472">
1.0
</text>
<path stroke="white" stroke-width="2" stroke-dasharray="1,2" d="M50 384l920 0"/>
<text stroke="none" fill="white" font-size="16" x="18" y="392">
1.5
</text>
<path stroke="white" stroke-width="2" stroke-dasharray="1,2" d="M50 304l920 0"/>
<text stroke="none" fill="white" font-size="16" x="18" y="312">
2.0
</text>
<path stroke="white" stroke-width="2" stroke-dasharray="1,2" d="M50 224l920 0"/>
<text stroke="none" fill="white" font-size="16" x="18" y="232">
2.5
</text>
<path stroke="white" stroke-width="2" stroke-dasharray="1,2" d="M50 144l920 0"/>
<text stroke="none" fill="white" font-size="16" x="18" y="152">
3.0
</text>
<path stroke="white" stroke-width="2" stroke-dasharray="1,2" d="M50 64l920 0"/>
<text stroke="none" fill="white" font-size="16" x="18" y="72">
3.5
</text>
<text stroke="none" fill="white" font-size="16" x="10" y="32">
     
</text>
<path stroke="red" d="M460 23l46 0"/>
<text stroke="none" fill="white" font-size="16" x="516" y="32">
VOUT0
</text>
<path stroke="red" d="M50 623l0 -514M50 197l1 25M51 223l0 -78M51 151l1 0 0 -3 91 0 0 -1 1 -1M144 150l0 -4M144 150l1 -1 1 1 2 -1 3 1 6 -1 12 1 18 -1 19 1 18 -1 10 1 0 -1M234 150l1 0M235 154l0 -5M235 153l1 0 0 -2 1 1 1 -1 2 1 4 -1 9 1 17 -1 18 1"/>
<path stroke="red" d="M288 152l19 -1 18 1 1 -1M326 152l0 -1M326 152l1 0 0 -2 1 -1M328 154l0 -5M328 154l1 -1 1 1 2 -1 3 1 6 -1 11 1 18 -1 19 1 18 -1 11 1 0 -1M418 154l1 0M419 161l0 -10M419 158l1 -2M420 157l0 -2 1 1 0 -1 1 1 3 -1 3 1 7 -1 15 1"/>
<path stroke="red" d="M450 156l18 -1 18 1 19 -1 5 1 0 -1 1 0 0 -2 1 1M512 158l0 -4M512 157l4 0 3 1 7 -1 13 1 18 -1 19 1 18 -1 8 1 0 -1 1 0M603 162l0 -8M603 160l1 -1M604 160l0 -1 91 0 0 -3 1 1M696 161l0 -4M696 161l1 -1 1 2 1 -2 2 2 4 -2 7 2 12 -2"/>
<path stroke="red" d="M724 160l19 2 18 -2 18 2 7 -2M786 173l0 -13M786 168l1 1M787 175l0 -10 1 -1M788 165l0 -2 90 0 0 -1M878 163l1 0 0 -3 1 2M880 165l0 -3M880 165l1 -1M881 165l0 -1M881 165l2 -1 2 1 4 -1 8 1 16 -1 18 1 19 -1 18 1 2 -1"/>
<path stroke="blue" d="M50 23l46 0"/>
<text stroke="none" fill="white" font-size="16" x="106" y="32">
VOUT1
</text>
<path stroke="blue" d="M50 622l93 0 0 -1 91 0 0 -1 92 0 0 -1 1 0 0 -1 91 0 0 -1 2 0 1 -1M421 617l0 -1M421 617l89 0 0 -1 1 0 0 -1 91 0 0 -1 1 0 0 -1 92 0 0 -1 91 0 0 -2 92 0 0 -1 1 0 0 -1 91 0"/>
<path stroke="#FFA500" d="M460 39l46 0"/>
<text stroke="none" fill="white" font-size="16" x="516" y="48">
VOUT2-0.5
</text>
<path stroke="#FFA500" d="M50 703l0 -517M50 231l1 33M51 300l0 -76M51 230l1 0 0 -2 91 0 0 -1 1 -1M144 230l0 -4M144 230l1 -1 1 1 2 -1 3 1 6 -1 12 1 18 -1 19 1 18 -1 10 1 0 -1M234 230l1 0M235 234l0 -5M235 234l1 -1 0 -2 1 1 1 -1 2 1 4 -1 9 1 17 -1"/>
<path stroke="#FFA500" d="M270 231l18 1 19 -1 18 1 1 -1M326 232l0 -1M326 232l1 0 0 -2 1 -1M328 234l0 -5M328 234l1 -1 1 1 2 -1 3 1 6 -1 11 1 18 -1 19 1 18 -1 11 1 0 -1 1 0M419 242l0 -11M419 238l1 -2M420 237l0 -2 1 1 0 -1 1 1 3 -1 3 1 7 -1 15 1"/>
<path stroke="#FFA500" d="M450 236l18 -1 18 1 19 -1 5 1 0 -1 1 0 0 -2 1 0M512 238l0 -5M512 238l1 -1 1 1 2 -1 3 1 7 -1 13 1 18 -1 19 1 18 -1 8 1 0 -2M602 237l1 0M603 243l0 -9M603 240l1 -2M604 240l0 -2M604 239l1 0 1 1 2 -1 2 1 6 -1 12 1 18 -1 19 1"/>
<path stroke="#FFA500" d="M665 240l18 -1 11 1 0 -1 1 0 0 -3 1 1M696 242l0 -5M696 242l1 -2 1 2 1 -2 2 2 4 -2 7 2 12 -2 19 2 18 -2 18 2 7 -2M786 254l0 -14M786 249l1 0M787 255l0 -10 1 -1 0 -1 2 0 2 -1 2 1 5 -1 11 1 18 -1 19 1 18 -1 13 1 0 -1M878 243l1 0"/>
<path stroke="#FFA500" d="M879 243l0 -4M879 240l1 2M880 246l0 -4M880 245l1 -1M881 245l0 -1M881 245l2 -1 2 1 4 -1 8 1 16 -1 18 1 19 -1 18 1 2 -1"/>
<path stroke="green" d="M50 39l46 0"/>
<text stroke="none" fill="white" font-size="16" x="106" y="48">
VOUT3+0.5
</text>
<path stroke="green" d="M50 542l93 0 0 -1 91 0 0 -1 92 0 0 -1 1 0 0 -1 91 0 0 -1 2 0 1 -1M421 537l0 -1M421 537l89 0 0 -1 1 0 0 -1 91 0 0 -1 1 0 0 -1 92 0 0 -1 91 0 0 -2 92 0 0 -1 1 0 0 -1 91 0"/>
</svg>
